<mxfile host="app.diagrams.net" agent="Mozilla/5.0 (Windows NT 10.0; Win64; x64) AppleWebKit/537.36 (KHTML, like Gecko) Chrome/129.0.0.0 Safari/537.36" version="24.7.17">
  <diagram name="Página-1" id="NoEmDym8T3x_JT7Sxo6F">
    <mxGraphModel grid="1" page="1" gridSize="10" guides="1" tooltips="1" connect="1" arrows="1" fold="1" pageScale="1" pageWidth="827" pageHeight="1169" math="0" shadow="0">
      <root>
        <mxCell id="0" />
        <mxCell id="1" parent="0" />
        <mxCell id="7DgDgAJp-ZZ8L2QRUjgb-1" value="Usuario" style="swimlane;fontStyle=0;childLayout=stackLayout;horizontal=1;startSize=26;fillColor=none;horizontalStack=0;resizeParent=1;resizeParentMax=0;resizeLast=0;collapsible=1;marginBottom=0;whiteSpace=wrap;html=1;" vertex="1" parent="1">
          <mxGeometry x="-375" y="33" width="200" height="130" as="geometry" />
        </mxCell>
        <mxCell id="7DgDgAJp-ZZ8L2QRUjgb-38" value="- id: Int" style="text;strokeColor=none;fillColor=none;align=left;verticalAlign=top;spacingLeft=4;spacingRight=4;overflow=hidden;rotatable=0;points=[[0,0.5],[1,0.5]];portConstraint=eastwest;whiteSpace=wrap;html=1;" vertex="1" parent="7DgDgAJp-ZZ8L2QRUjgb-1">
          <mxGeometry y="26" width="200" height="26" as="geometry" />
        </mxCell>
        <mxCell id="7DgDgAJp-ZZ8L2QRUjgb-2" value="- Nombre : String" style="text;strokeColor=none;fillColor=none;align=left;verticalAlign=top;spacingLeft=4;spacingRight=4;overflow=hidden;rotatable=0;points=[[0,0.5],[1,0.5]];portConstraint=eastwest;whiteSpace=wrap;html=1;" vertex="1" parent="7DgDgAJp-ZZ8L2QRUjgb-1">
          <mxGeometry y="52" width="200" height="26" as="geometry" />
        </mxCell>
        <mxCell id="7DgDgAJp-ZZ8L2QRUjgb-37" value="- Telefono : String" style="text;strokeColor=none;fillColor=none;align=left;verticalAlign=top;spacingLeft=4;spacingRight=4;overflow=hidden;rotatable=0;points=[[0,0.5],[1,0.5]];portConstraint=eastwest;whiteSpace=wrap;html=1;" vertex="1" parent="7DgDgAJp-ZZ8L2QRUjgb-1">
          <mxGeometry y="78" width="200" height="26" as="geometry" />
        </mxCell>
        <mxCell id="9O9s9S7k72ydT3ChRUkx-1" value="- Genero : EnumGenero" style="text;strokeColor=none;fillColor=none;align=left;verticalAlign=top;spacingLeft=4;spacingRight=4;overflow=hidden;rotatable=0;points=[[0,0.5],[1,0.5]];portConstraint=eastwest;whiteSpace=wrap;html=1;" vertex="1" parent="7DgDgAJp-ZZ8L2QRUjgb-1">
          <mxGeometry y="104" width="200" height="26" as="geometry" />
        </mxCell>
        <mxCell id="7DgDgAJp-ZZ8L2QRUjgb-64" style="edgeStyle=orthogonalEdgeStyle;rounded=0;orthogonalLoop=1;jettySize=auto;html=1;startArrow=none;startFill=0;endArrow=open;endFill=0;entryX=1;entryY=0.5;entryDx=0;entryDy=0;exitX=0;exitY=0.5;exitDx=0;exitDy=0;" edge="1" parent="1" source="yD1GrySNkV5dJKzf1DpW-14" target="aeTVmqD48wDvW3vEy07L-8">
          <mxGeometry relative="1" as="geometry">
            <mxPoint x="-438.0500000000002" y="564.836" as="sourcePoint" />
            <mxPoint x="-548.3199999999999" y="565.042" as="targetPoint" />
            <Array as="points">
              <mxPoint x="-430" y="487" />
              <mxPoint x="-430" y="487" />
            </Array>
          </mxGeometry>
        </mxCell>
        <mxCell id="7DgDgAJp-ZZ8L2QRUjgb-65" value="Gestiona" style="edgeLabel;html=1;align=center;verticalAlign=middle;resizable=0;points=[];" connectable="0" vertex="1" parent="7DgDgAJp-ZZ8L2QRUjgb-64">
          <mxGeometry x="0.0991" y="-1" relative="1" as="geometry">
            <mxPoint x="9" y="1" as="offset" />
          </mxGeometry>
        </mxCell>
        <mxCell id="7DgDgAJp-ZZ8L2QRUjgb-68" value="0..*" style="edgeLabel;html=1;align=center;verticalAlign=middle;resizable=0;points=[];" connectable="0" vertex="1" parent="7DgDgAJp-ZZ8L2QRUjgb-64">
          <mxGeometry x="0.7368" y="-1" relative="1" as="geometry">
            <mxPoint x="-9" y="-15" as="offset" />
          </mxGeometry>
        </mxCell>
        <mxCell id="7DgDgAJp-ZZ8L2QRUjgb-69" value="1" style="edgeLabel;html=1;align=center;verticalAlign=middle;resizable=0;points=[];" connectable="0" vertex="1" parent="7DgDgAJp-ZZ8L2QRUjgb-64">
          <mxGeometry x="-0.8274" y="-1" relative="1" as="geometry">
            <mxPoint x="8" y="-11" as="offset" />
          </mxGeometry>
        </mxCell>
        <mxCell id="7DgDgAJp-ZZ8L2QRUjgb-109" style="edgeStyle=orthogonalEdgeStyle;rounded=0;orthogonalLoop=1;jettySize=auto;html=1;endArrow=none;endFill=0;exitX=0.5;exitY=0;exitDx=0;exitDy=0;" edge="1" parent="1" source="PGe-2l_ORnYyUQcEOk1B-2">
          <mxGeometry relative="1" as="geometry">
            <mxPoint x="-290" y="193" as="targetPoint" />
            <mxPoint x="150" y="259" as="sourcePoint" />
            <Array as="points">
              <mxPoint x="35" y="193" />
            </Array>
          </mxGeometry>
        </mxCell>
        <mxCell id="7DgDgAJp-ZZ8L2QRUjgb-39" value="&amp;lt;&amp;lt;Enumeracion&amp;gt;&amp;gt;&amp;nbsp;&lt;div&gt;EnumGenero&lt;/div&gt;" style="swimlane;fontStyle=1;align=center;verticalAlign=top;childLayout=stackLayout;horizontal=1;startSize=40;horizontalStack=0;resizeParent=1;resizeParentMax=0;resizeLast=0;collapsible=1;marginBottom=0;whiteSpace=wrap;html=1;" vertex="1" parent="1">
          <mxGeometry x="330" y="263" width="160" height="118" as="geometry" />
        </mxCell>
        <mxCell id="7DgDgAJp-ZZ8L2QRUjgb-40" value="F" style="text;strokeColor=none;fillColor=none;align=left;verticalAlign=top;spacingLeft=4;spacingRight=4;overflow=hidden;rotatable=0;points=[[0,0.5],[1,0.5]];portConstraint=eastwest;whiteSpace=wrap;html=1;" vertex="1" parent="7DgDgAJp-ZZ8L2QRUjgb-39">
          <mxGeometry y="40" width="160" height="26" as="geometry" />
        </mxCell>
        <mxCell id="7DgDgAJp-ZZ8L2QRUjgb-42" value="M" style="text;strokeColor=none;fillColor=none;align=left;verticalAlign=top;spacingLeft=4;spacingRight=4;overflow=hidden;rotatable=0;points=[[0,0.5],[1,0.5]];portConstraint=eastwest;whiteSpace=wrap;html=1;" vertex="1" parent="7DgDgAJp-ZZ8L2QRUjgb-39">
          <mxGeometry y="66" width="160" height="26" as="geometry" />
        </mxCell>
        <mxCell id="7DgDgAJp-ZZ8L2QRUjgb-43" value="NE" style="text;strokeColor=none;fillColor=none;align=left;verticalAlign=top;spacingLeft=4;spacingRight=4;overflow=hidden;rotatable=0;points=[[0,0.5],[1,0.5]];portConstraint=eastwest;whiteSpace=wrap;html=1;" vertex="1" parent="7DgDgAJp-ZZ8L2QRUjgb-39">
          <mxGeometry y="92" width="160" height="26" as="geometry" />
        </mxCell>
        <mxCell id="7DgDgAJp-ZZ8L2QRUjgb-44" value="&amp;lt;&amp;lt;Enumeracion&amp;gt;&amp;gt;&amp;nbsp;&lt;div&gt;EnumAE&lt;/div&gt;" style="swimlane;fontStyle=1;align=center;verticalAlign=top;childLayout=stackLayout;horizontal=1;startSize=40;horizontalStack=0;resizeParent=1;resizeParentMax=0;resizeLast=0;collapsible=1;marginBottom=0;whiteSpace=wrap;html=1;" vertex="1" parent="1">
          <mxGeometry x="330" y="406" width="160" height="144" as="geometry" />
        </mxCell>
        <mxCell id="7DgDgAJp-ZZ8L2QRUjgb-45" value="Crossfit" style="text;strokeColor=none;fillColor=none;align=left;verticalAlign=top;spacingLeft=4;spacingRight=4;overflow=hidden;rotatable=0;points=[[0,0.5],[1,0.5]];portConstraint=eastwest;whiteSpace=wrap;html=1;" vertex="1" parent="7DgDgAJp-ZZ8L2QRUjgb-44">
          <mxGeometry y="40" width="160" height="26" as="geometry" />
        </mxCell>
        <mxCell id="7DgDgAJp-ZZ8L2QRUjgb-46" value="Fuerza" style="text;strokeColor=none;fillColor=none;align=left;verticalAlign=top;spacingLeft=4;spacingRight=4;overflow=hidden;rotatable=0;points=[[0,0.5],[1,0.5]];portConstraint=eastwest;whiteSpace=wrap;html=1;" vertex="1" parent="7DgDgAJp-ZZ8L2QRUjgb-44">
          <mxGeometry y="66" width="160" height="26" as="geometry" />
        </mxCell>
        <mxCell id="7DgDgAJp-ZZ8L2QRUjgb-47" value="Reducción de peso" style="text;strokeColor=none;fillColor=none;align=left;verticalAlign=top;spacingLeft=4;spacingRight=4;overflow=hidden;rotatable=0;points=[[0,0.5],[1,0.5]];portConstraint=eastwest;whiteSpace=wrap;html=1;" vertex="1" parent="7DgDgAJp-ZZ8L2QRUjgb-44">
          <mxGeometry y="92" width="160" height="26" as="geometry" />
        </mxCell>
        <mxCell id="7DgDgAJp-ZZ8L2QRUjgb-48" value="Culturismo" style="text;strokeColor=none;fillColor=none;align=left;verticalAlign=top;spacingLeft=4;spacingRight=4;overflow=hidden;rotatable=0;points=[[0,0.5],[1,0.5]];portConstraint=eastwest;whiteSpace=wrap;html=1;" vertex="1" parent="7DgDgAJp-ZZ8L2QRUjgb-44">
          <mxGeometry y="118" width="160" height="26" as="geometry" />
        </mxCell>
        <mxCell id="7DgDgAJp-ZZ8L2QRUjgb-75" style="edgeStyle=orthogonalEdgeStyle;rounded=0;orthogonalLoop=1;jettySize=auto;html=1;entryX=0;entryY=0.5;entryDx=0;entryDy=0;endArrow=open;endFill=0;exitX=1;exitY=0.5;exitDx=0;exitDy=0;" edge="1" parent="1" source="yD1GrySNkV5dJKzf1DpW-14">
          <mxGeometry relative="1" as="geometry">
            <mxPoint x="-84.20000000000027" y="573.3380000000001" as="sourcePoint" />
            <mxPoint x="-70" y="487" as="targetPoint" />
            <Array as="points">
              <mxPoint x="-140" y="487" />
              <mxPoint x="-140" y="487" />
            </Array>
          </mxGeometry>
        </mxCell>
        <mxCell id="7DgDgAJp-ZZ8L2QRUjgb-76" value="Gestiona" style="edgeLabel;html=1;align=center;verticalAlign=middle;resizable=0;points=[];" connectable="0" vertex="1" parent="7DgDgAJp-ZZ8L2QRUjgb-75">
          <mxGeometry x="0.0092" y="1" relative="1" as="geometry">
            <mxPoint x="-5" y="-3" as="offset" />
          </mxGeometry>
        </mxCell>
        <mxCell id="7DgDgAJp-ZZ8L2QRUjgb-77" value="1" style="edgeLabel;html=1;align=center;verticalAlign=middle;resizable=0;points=[];" connectable="0" vertex="1" parent="7DgDgAJp-ZZ8L2QRUjgb-75">
          <mxGeometry x="-0.8567" y="1" relative="1" as="geometry">
            <mxPoint x="1" y="-13" as="offset" />
          </mxGeometry>
        </mxCell>
        <mxCell id="7DgDgAJp-ZZ8L2QRUjgb-78" value="0..*" style="edgeLabel;html=1;align=center;verticalAlign=middle;resizable=0;points=[];" connectable="0" vertex="1" parent="7DgDgAJp-ZZ8L2QRUjgb-75">
          <mxGeometry x="0.7295" relative="1" as="geometry">
            <mxPoint x="1" y="-14" as="offset" />
          </mxGeometry>
        </mxCell>
        <mxCell id="4cskRmlaPrXoLwZwChlX-1" value="&lt;span id=&quot;docs-internal-guid-e8e51dc0-7fff-010a-bec2-989144355dfe&quot;&gt;&lt;span style=&quot;background-color: transparent; font-variant-numeric: normal; font-variant-east-asian: normal; font-variant-alternates: normal; font-variant-position: normal; vertical-align: baseline; white-space-collapse: preserve;&quot;&gt;&lt;font style=&quot;font-size: 12px;&quot; face=&quot;Helvetica&quot;&gt;Ejercicio&lt;/font&gt;&lt;/span&gt;&lt;/span&gt;" style="swimlane;fontStyle=0;childLayout=stackLayout;horizontal=1;startSize=26;fillColor=none;horizontalStack=0;resizeParent=1;resizeParentMax=0;resizeLast=0;collapsible=1;marginBottom=0;whiteSpace=wrap;html=1;" vertex="1" parent="1">
          <mxGeometry x="-427" y="763" width="304" height="156" as="geometry" />
        </mxCell>
        <mxCell id="xcdbg_x7ucZcBdXLwrzQ-1" value="- Id : String" style="text;strokeColor=none;fillColor=none;align=left;verticalAlign=top;spacingLeft=4;spacingRight=4;overflow=hidden;rotatable=0;points=[[0,0.5],[1,0.5]];portConstraint=eastwest;whiteSpace=wrap;html=1;" vertex="1" parent="4cskRmlaPrXoLwZwChlX-1">
          <mxGeometry y="26" width="304" height="26" as="geometry" />
        </mxCell>
        <mxCell id="4cskRmlaPrXoLwZwChlX-2" value="- Nombre del ejercicio : EnumEjercicios" style="text;strokeColor=none;fillColor=none;align=left;verticalAlign=top;spacingLeft=4;spacingRight=4;overflow=hidden;rotatable=0;points=[[0,0.5],[1,0.5]];portConstraint=eastwest;whiteSpace=wrap;html=1;" vertex="1" parent="4cskRmlaPrXoLwZwChlX-1">
          <mxGeometry y="52" width="304" height="26" as="geometry" />
        </mxCell>
        <mxCell id="4cskRmlaPrXoLwZwChlX-4" value="- Numero de repeticiones : Entero" style="text;strokeColor=none;fillColor=none;align=left;verticalAlign=top;spacingLeft=4;spacingRight=4;overflow=hidden;rotatable=0;points=[[0,0.5],[1,0.5]];portConstraint=eastwest;whiteSpace=wrap;html=1;" vertex="1" parent="4cskRmlaPrXoLwZwChlX-1">
          <mxGeometry y="78" width="304" height="26" as="geometry" />
        </mxCell>
        <mxCell id="4cskRmlaPrXoLwZwChlX-5" value="- Numero de series : Entero" style="text;strokeColor=none;fillColor=none;align=left;verticalAlign=top;spacingLeft=4;spacingRight=4;overflow=hidden;rotatable=0;points=[[0,0.5],[1,0.5]];portConstraint=eastwest;whiteSpace=wrap;html=1;" vertex="1" parent="4cskRmlaPrXoLwZwChlX-1">
          <mxGeometry y="104" width="304" height="26" as="geometry" />
        </mxCell>
        <mxCell id="xcdbg_x7ucZcBdXLwrzQ-2" value="- Dia de la semana : EnumDiaSemana" style="text;strokeColor=none;fillColor=none;align=left;verticalAlign=top;spacingLeft=4;spacingRight=4;overflow=hidden;rotatable=0;points=[[0,0.5],[1,0.5]];portConstraint=eastwest;whiteSpace=wrap;html=1;" vertex="1" parent="4cskRmlaPrXoLwZwChlX-1">
          <mxGeometry y="130" width="304" height="26" as="geometry" />
        </mxCell>
        <mxCell id="4cskRmlaPrXoLwZwChlX-13" value="" style="endArrow=diamondThin;endFill=1;endSize=24;html=1;rounded=0;entryX=0.5;entryY=1;entryDx=0;entryDy=0;exitX=0.5;exitY=0;exitDx=0;exitDy=0;" edge="1" parent="1" source="4cskRmlaPrXoLwZwChlX-1" target="l2FIG3eYDslee5MTGRL1-30">
          <mxGeometry width="160" relative="1" as="geometry">
            <mxPoint x="-430" y="878" as="sourcePoint" />
            <mxPoint x="-285" y="837" as="targetPoint" />
          </mxGeometry>
        </mxCell>
        <mxCell id="4cskRmlaPrXoLwZwChlX-14" value="tiene" style="edgeLabel;html=1;align=center;verticalAlign=middle;resizable=0;points=[];" connectable="0" vertex="1" parent="4cskRmlaPrXoLwZwChlX-13">
          <mxGeometry x="-0.2389" y="-1" relative="1" as="geometry">
            <mxPoint as="offset" />
          </mxGeometry>
        </mxCell>
        <mxCell id="4cskRmlaPrXoLwZwChlX-15" value="1..*" style="edgeLabel;html=1;align=center;verticalAlign=middle;resizable=0;points=[];" connectable="0" vertex="1" parent="4cskRmlaPrXoLwZwChlX-13">
          <mxGeometry x="-0.7241" relative="1" as="geometry">
            <mxPoint x="14" y="2" as="offset" />
          </mxGeometry>
        </mxCell>
        <mxCell id="4cskRmlaPrXoLwZwChlX-16" value="1" style="edgeLabel;html=1;align=center;verticalAlign=middle;resizable=0;points=[];" connectable="0" vertex="1" parent="4cskRmlaPrXoLwZwChlX-13">
          <mxGeometry x="0.2124" relative="1" as="geometry">
            <mxPoint x="15" y="-25" as="offset" />
          </mxGeometry>
        </mxCell>
        <mxCell id="xcdbg_x7ucZcBdXLwrzQ-3" value="&amp;lt;&amp;lt;Enumeracion&amp;gt;&amp;gt;&amp;nbsp;&lt;div&gt;EnumDiaSemana&lt;/div&gt;" style="swimlane;fontStyle=1;align=center;verticalAlign=top;childLayout=stackLayout;horizontal=1;startSize=40;horizontalStack=0;resizeParent=1;resizeParentMax=0;resizeLast=0;collapsible=1;marginBottom=0;whiteSpace=wrap;html=1;" vertex="1" parent="1">
          <mxGeometry x="330" y="43" width="160" height="196" as="geometry" />
        </mxCell>
        <mxCell id="xcdbg_x7ucZcBdXLwrzQ-4" value="Lunes" style="text;strokeColor=none;fillColor=none;align=left;verticalAlign=top;spacingLeft=4;spacingRight=4;overflow=hidden;rotatable=0;points=[[0,0.5],[1,0.5]];portConstraint=eastwest;whiteSpace=wrap;html=1;" vertex="1" parent="xcdbg_x7ucZcBdXLwrzQ-3">
          <mxGeometry y="40" width="160" height="26" as="geometry" />
        </mxCell>
        <mxCell id="xcdbg_x7ucZcBdXLwrzQ-5" value="Martes" style="text;strokeColor=none;fillColor=none;align=left;verticalAlign=top;spacingLeft=4;spacingRight=4;overflow=hidden;rotatable=0;points=[[0,0.5],[1,0.5]];portConstraint=eastwest;whiteSpace=wrap;html=1;" vertex="1" parent="xcdbg_x7ucZcBdXLwrzQ-3">
          <mxGeometry y="66" width="160" height="26" as="geometry" />
        </mxCell>
        <mxCell id="xcdbg_x7ucZcBdXLwrzQ-6" value="Miércoles" style="text;strokeColor=none;fillColor=none;align=left;verticalAlign=top;spacingLeft=4;spacingRight=4;overflow=hidden;rotatable=0;points=[[0,0.5],[1,0.5]];portConstraint=eastwest;whiteSpace=wrap;html=1;" vertex="1" parent="xcdbg_x7ucZcBdXLwrzQ-3">
          <mxGeometry y="92" width="160" height="26" as="geometry" />
        </mxCell>
        <mxCell id="xcdbg_x7ucZcBdXLwrzQ-7" value="Jueves" style="text;strokeColor=none;fillColor=none;align=left;verticalAlign=top;spacingLeft=4;spacingRight=4;overflow=hidden;rotatable=0;points=[[0,0.5],[1,0.5]];portConstraint=eastwest;whiteSpace=wrap;html=1;" vertex="1" parent="xcdbg_x7ucZcBdXLwrzQ-3">
          <mxGeometry y="118" width="160" height="26" as="geometry" />
        </mxCell>
        <mxCell id="xcdbg_x7ucZcBdXLwrzQ-8" value="Viernes" style="text;strokeColor=none;fillColor=none;align=left;verticalAlign=top;spacingLeft=4;spacingRight=4;overflow=hidden;rotatable=0;points=[[0,0.5],[1,0.5]];portConstraint=eastwest;whiteSpace=wrap;html=1;" vertex="1" parent="xcdbg_x7ucZcBdXLwrzQ-3">
          <mxGeometry y="144" width="160" height="26" as="geometry" />
        </mxCell>
        <mxCell id="xcdbg_x7ucZcBdXLwrzQ-9" value="Sábado" style="text;strokeColor=none;fillColor=none;align=left;verticalAlign=top;spacingLeft=4;spacingRight=4;overflow=hidden;rotatable=0;points=[[0,0.5],[1,0.5]];portConstraint=eastwest;whiteSpace=wrap;html=1;" vertex="1" parent="xcdbg_x7ucZcBdXLwrzQ-3">
          <mxGeometry y="170" width="160" height="26" as="geometry" />
        </mxCell>
        <mxCell id="xAGFhRrVGLKMyepYp5uR-1" style="edgeStyle=orthogonalEdgeStyle;rounded=0;orthogonalLoop=1;jettySize=auto;html=1;endArrow=none;endFill=0;entryX=0.5;entryY=1;entryDx=0;entryDy=0;exitX=1;exitY=0.5;exitDx=0;exitDy=0;" edge="1" parent="1" source="l2FIG3eYDslee5MTGRL1-31" target="PGe-2l_ORnYyUQcEOk1B-2">
          <mxGeometry relative="1" as="geometry">
            <mxPoint x="147.51999999999998" y="549.8599999999999" as="targetPoint" />
            <Array as="points">
              <mxPoint x="35" y="648" />
            </Array>
            <mxPoint x="-174.19999999999982" y="687.798" as="sourcePoint" />
          </mxGeometry>
        </mxCell>
        <mxCell id="xAGFhRrVGLKMyepYp5uR-2" value="Tiene" style="edgeLabel;html=1;align=center;verticalAlign=middle;resizable=0;points=[];" connectable="0" vertex="1" parent="xAGFhRrVGLKMyepYp5uR-1">
          <mxGeometry x="0.3773" y="-2" relative="1" as="geometry">
            <mxPoint x="3" y="-29" as="offset" />
          </mxGeometry>
        </mxCell>
        <mxCell id="xAGFhRrVGLKMyepYp5uR-3" value="1" style="edgeLabel;html=1;align=center;verticalAlign=middle;resizable=0;points=[];" connectable="0" vertex="1" parent="xAGFhRrVGLKMyepYp5uR-1">
          <mxGeometry x="0.9347" y="-1" relative="1" as="geometry">
            <mxPoint x="-16" y="7" as="offset" />
          </mxGeometry>
        </mxCell>
        <mxCell id="xAGFhRrVGLKMyepYp5uR-4" value="1" style="edgeLabel;html=1;align=center;verticalAlign=middle;resizable=0;points=[];" connectable="0" vertex="1" parent="xAGFhRrVGLKMyepYp5uR-1">
          <mxGeometry x="-0.9312" y="-1" relative="1" as="geometry">
            <mxPoint x="1" y="-26" as="offset" />
          </mxGeometry>
        </mxCell>
        <mxCell id="xAGFhRrVGLKMyepYp5uR-5" value="&amp;lt;&amp;lt;Enumeracion&amp;gt;&amp;gt;&amp;nbsp;&lt;div&gt;EnumMembresia&lt;/div&gt;" style="swimlane;fontStyle=1;align=center;verticalAlign=top;childLayout=stackLayout;horizontal=1;startSize=40;horizontalStack=0;resizeParent=1;resizeParentMax=0;resizeLast=0;collapsible=1;marginBottom=0;whiteSpace=wrap;html=1;" vertex="1" parent="1">
          <mxGeometry x="330" y="573" width="160" height="118" as="geometry" />
        </mxCell>
        <mxCell id="xAGFhRrVGLKMyepYp5uR-6" value="General" style="text;strokeColor=none;fillColor=none;align=left;verticalAlign=top;spacingLeft=4;spacingRight=4;overflow=hidden;rotatable=0;points=[[0,0.5],[1,0.5]];portConstraint=eastwest;whiteSpace=wrap;html=1;" vertex="1" parent="xAGFhRrVGLKMyepYp5uR-5">
          <mxGeometry y="40" width="160" height="26" as="geometry" />
        </mxCell>
        <mxCell id="xAGFhRrVGLKMyepYp5uR-7" value="Premium" style="text;strokeColor=none;fillColor=none;align=left;verticalAlign=top;spacingLeft=4;spacingRight=4;overflow=hidden;rotatable=0;points=[[0,0.5],[1,0.5]];portConstraint=eastwest;whiteSpace=wrap;html=1;" vertex="1" parent="xAGFhRrVGLKMyepYp5uR-5">
          <mxGeometry y="66" width="160" height="26" as="geometry" />
        </mxCell>
        <mxCell id="PGe-2l_ORnYyUQcEOk1B-1" value="Inactivo" style="text;strokeColor=none;fillColor=none;align=left;verticalAlign=top;spacingLeft=4;spacingRight=4;overflow=hidden;rotatable=0;points=[[0,0.5],[1,0.5]];portConstraint=eastwest;whiteSpace=wrap;html=1;" vertex="1" parent="xAGFhRrVGLKMyepYp5uR-5">
          <mxGeometry y="92" width="160" height="26" as="geometry" />
        </mxCell>
        <mxCell id="Orh5wPGZt2oU2zoWEbcS-4" style="edgeStyle=orthogonalEdgeStyle;rounded=0;orthogonalLoop=1;jettySize=auto;html=1;endArrow=none;endFill=0;" edge="1" parent="1" source="yD1GrySNkV5dJKzf1DpW-14">
          <mxGeometry relative="1" as="geometry">
            <mxPoint x="-440" y="393" as="targetPoint" />
            <Array as="points">
              <mxPoint x="-275" y="393" />
            </Array>
          </mxGeometry>
        </mxCell>
        <mxCell id="yD1GrySNkV5dJKzf1DpW-14" value="Administrador" style="swimlane;fontStyle=1;align=center;verticalAlign=top;childLayout=stackLayout;horizontal=1;startSize=26;horizontalStack=0;resizeParent=1;resizeParentMax=0;resizeLast=0;collapsible=1;marginBottom=0;whiteSpace=wrap;html=1;" vertex="1" parent="1">
          <mxGeometry x="-328.5" y="470" width="107" height="34" as="geometry" />
        </mxCell>
        <mxCell id="yD1GrySNkV5dJKzf1DpW-16" value="" style="line;strokeWidth=1;fillColor=none;align=left;verticalAlign=middle;spacingTop=-1;spacingLeft=3;spacingRight=3;rotatable=0;labelPosition=right;points=[];portConstraint=eastwest;strokeColor=inherit;" vertex="1" parent="yD1GrySNkV5dJKzf1DpW-14">
          <mxGeometry y="26" width="107" height="8" as="geometry" />
        </mxCell>
        <mxCell id="PGe-2l_ORnYyUQcEOk1B-2" value="Cliente" style="swimlane;fontStyle=1;align=center;verticalAlign=top;childLayout=stackLayout;horizontal=1;startSize=26;horizontalStack=0;resizeParent=1;resizeParentMax=0;resizeLast=0;collapsible=1;marginBottom=0;whiteSpace=wrap;html=1;" vertex="1" parent="1">
          <mxGeometry x="-70" y="422" width="210" height="86" as="geometry" />
        </mxCell>
        <mxCell id="PGe-2l_ORnYyUQcEOk1B-8" value="- Membresia : EnumMembresia" style="text;strokeColor=none;fillColor=none;align=left;verticalAlign=top;spacingLeft=4;spacingRight=4;overflow=hidden;rotatable=0;points=[[0,0.5],[1,0.5]];portConstraint=eastwest;whiteSpace=wrap;html=1;" vertex="1" parent="PGe-2l_ORnYyUQcEOk1B-2">
          <mxGeometry y="26" width="210" height="26" as="geometry" />
        </mxCell>
        <mxCell id="_cmF386riDA9ReXQvAPc-2" value="- Fecha suscripción: String" style="text;strokeColor=none;fillColor=none;align=left;verticalAlign=top;spacingLeft=4;spacingRight=4;overflow=hidden;rotatable=0;points=[[0,0.5],[1,0.5]];portConstraint=eastwest;whiteSpace=wrap;html=1;" vertex="1" parent="PGe-2l_ORnYyUQcEOk1B-2">
          <mxGeometry y="52" width="210" height="26" as="geometry" />
        </mxCell>
        <mxCell id="PGe-2l_ORnYyUQcEOk1B-4" value="" style="line;strokeWidth=1;fillColor=none;align=left;verticalAlign=middle;spacingTop=-1;spacingLeft=3;spacingRight=3;rotatable=0;labelPosition=right;points=[];portConstraint=eastwest;strokeColor=inherit;" vertex="1" parent="PGe-2l_ORnYyUQcEOk1B-2">
          <mxGeometry y="78" width="210" height="8" as="geometry" />
        </mxCell>
        <mxCell id="aeTVmqD48wDvW3vEy07L-2" value="Entrenador" style="swimlane;fontStyle=1;align=center;verticalAlign=top;childLayout=stackLayout;horizontal=1;startSize=26;horizontalStack=0;resizeParent=1;resizeParentMax=0;resizeLast=0;collapsible=1;marginBottom=0;whiteSpace=wrap;html=1;" vertex="1" parent="1">
          <mxGeometry x="-760" y="422" width="210" height="114" as="geometry" />
        </mxCell>
        <mxCell id="aeTVmqD48wDvW3vEy07L-3" value="- Área de especialidad: EnumAE" style="text;strokeColor=none;fillColor=none;align=left;verticalAlign=top;spacingLeft=4;spacingRight=4;overflow=hidden;rotatable=0;points=[[0,0.5],[1,0.5]];portConstraint=eastwest;whiteSpace=wrap;html=1;" vertex="1" parent="aeTVmqD48wDvW3vEy07L-2">
          <mxGeometry y="26" width="210" height="26" as="geometry" />
        </mxCell>
        <mxCell id="aeTVmqD48wDvW3vEy07L-8" value="- Salario: Long" style="text;strokeColor=none;fillColor=none;align=left;verticalAlign=top;spacingLeft=4;spacingRight=4;overflow=hidden;rotatable=0;points=[[0,0.5],[1,0.5]];portConstraint=eastwest;whiteSpace=wrap;html=1;" vertex="1" parent="aeTVmqD48wDvW3vEy07L-2">
          <mxGeometry y="52" width="210" height="26" as="geometry" />
        </mxCell>
        <mxCell id="aeTVmqD48wDvW3vEy07L-7" value="- Fecha de contratación: Date" style="text;strokeColor=none;fillColor=none;align=left;verticalAlign=top;spacingLeft=4;spacingRight=4;overflow=hidden;rotatable=0;points=[[0,0.5],[1,0.5]];portConstraint=eastwest;whiteSpace=wrap;html=1;" vertex="1" parent="aeTVmqD48wDvW3vEy07L-2">
          <mxGeometry y="78" width="210" height="26" as="geometry" />
        </mxCell>
        <mxCell id="aeTVmqD48wDvW3vEy07L-4" value="" style="line;strokeWidth=1;fillColor=none;align=left;verticalAlign=middle;spacingTop=-1;spacingLeft=3;spacingRight=3;rotatable=0;labelPosition=right;points=[];portConstraint=eastwest;strokeColor=inherit;" vertex="1" parent="aeTVmqD48wDvW3vEy07L-2">
          <mxGeometry y="104" width="210" height="10" as="geometry" />
        </mxCell>
        <mxCell id="l2FIG3eYDslee5MTGRL1-7" value="AccesoCuenta" style="swimlane;fontStyle=1;align=center;verticalAlign=top;childLayout=stackLayout;horizontal=1;startSize=26;horizontalStack=0;resizeParent=1;resizeParentMax=0;resizeLast=0;collapsible=1;marginBottom=0;whiteSpace=wrap;html=1;" vertex="1" parent="1">
          <mxGeometry x="-520" y="233" width="160" height="130" as="geometry" />
        </mxCell>
        <mxCell id="l2FIG3eYDslee5MTGRL1-8" value="- psw: String" style="text;strokeColor=none;fillColor=none;align=left;verticalAlign=top;spacingLeft=4;spacingRight=4;overflow=hidden;rotatable=0;points=[[0,0.5],[1,0.5]];portConstraint=eastwest;whiteSpace=wrap;html=1;" vertex="1" parent="l2FIG3eYDslee5MTGRL1-7">
          <mxGeometry y="26" width="160" height="26" as="geometry" />
        </mxCell>
        <mxCell id="l2FIG3eYDslee5MTGRL1-11" value="- idUsuario: String" style="text;strokeColor=none;fillColor=none;align=left;verticalAlign=top;spacingLeft=4;spacingRight=4;overflow=hidden;rotatable=0;points=[[0,0.5],[1,0.5]];portConstraint=eastwest;whiteSpace=wrap;html=1;" vertex="1" parent="l2FIG3eYDslee5MTGRL1-7">
          <mxGeometry y="52" width="160" height="26" as="geometry" />
        </mxCell>
        <mxCell id="l2FIG3eYDslee5MTGRL1-9" value="" style="line;strokeWidth=1;fillColor=none;align=left;verticalAlign=middle;spacingTop=-1;spacingLeft=3;spacingRight=3;rotatable=0;labelPosition=right;points=[];portConstraint=eastwest;strokeColor=inherit;" vertex="1" parent="l2FIG3eYDslee5MTGRL1-7">
          <mxGeometry y="78" width="160" height="8" as="geometry" />
        </mxCell>
        <mxCell id="l2FIG3eYDslee5MTGRL1-10" value="+ iniciarSesion(): boolean&lt;div&gt;&lt;br&gt;&lt;/div&gt;" style="text;strokeColor=none;fillColor=none;align=left;verticalAlign=top;spacingLeft=4;spacingRight=4;overflow=hidden;rotatable=0;points=[[0,0.5],[1,0.5]];portConstraint=eastwest;whiteSpace=wrap;html=1;" vertex="1" parent="l2FIG3eYDslee5MTGRL1-7">
          <mxGeometry y="86" width="160" height="22" as="geometry" />
        </mxCell>
        <mxCell id="bCKjbydv4XLaWoWh5i5W-4" value="+ CerrarSesion(): boolean&lt;div&gt;&lt;br&gt;&lt;/div&gt;" style="text;strokeColor=none;fillColor=none;align=left;verticalAlign=top;spacingLeft=4;spacingRight=4;overflow=hidden;rotatable=0;points=[[0,0.5],[1,0.5]];portConstraint=eastwest;whiteSpace=wrap;html=1;" vertex="1" parent="l2FIG3eYDslee5MTGRL1-7">
          <mxGeometry y="108" width="160" height="22" as="geometry" />
        </mxCell>
        <mxCell id="l2FIG3eYDslee5MTGRL1-30" value="PMF" style="swimlane;fontStyle=1;align=center;verticalAlign=top;childLayout=stackLayout;horizontal=1;startSize=26;horizontalStack=0;resizeParent=1;resizeParentMax=0;resizeLast=0;collapsible=1;marginBottom=0;whiteSpace=wrap;html=1;" vertex="1" parent="1">
          <mxGeometry x="-375" y="583" width="200" height="86" as="geometry" />
        </mxCell>
        <mxCell id="bCKjbydv4XLaWoWh5i5W-9" value="- id: String" style="text;strokeColor=none;fillColor=none;align=left;verticalAlign=top;spacingLeft=4;spacingRight=4;overflow=hidden;rotatable=0;points=[[0,0.5],[1,0.5]];portConstraint=eastwest;whiteSpace=wrap;html=1;" vertex="1" parent="l2FIG3eYDslee5MTGRL1-30">
          <mxGeometry y="26" width="200" height="26" as="geometry" />
        </mxCell>
        <mxCell id="l2FIG3eYDslee5MTGRL1-31" value="- Fecha de revisión: vector &amp;lt;Date&amp;gt;" style="text;strokeColor=none;fillColor=none;align=left;verticalAlign=top;spacingLeft=4;spacingRight=4;overflow=hidden;rotatable=0;points=[[0,0.5],[1,0.5]];portConstraint=eastwest;whiteSpace=wrap;html=1;" vertex="1" parent="l2FIG3eYDslee5MTGRL1-30">
          <mxGeometry y="52" width="200" height="26" as="geometry" />
        </mxCell>
        <mxCell id="l2FIG3eYDslee5MTGRL1-32" value="" style="line;strokeWidth=1;fillColor=none;align=left;verticalAlign=middle;spacingTop=-1;spacingLeft=3;spacingRight=3;rotatable=0;labelPosition=right;points=[];portConstraint=eastwest;strokeColor=inherit;" vertex="1" parent="l2FIG3eYDslee5MTGRL1-30">
          <mxGeometry y="78" width="200" height="8" as="geometry" />
        </mxCell>
        <mxCell id="bCKjbydv4XLaWoWh5i5W-10" value="&amp;lt;&amp;lt;Enumeracion&amp;gt;&amp;gt;&amp;nbsp;&lt;div&gt;EnumEjercicio&lt;/div&gt;" style="swimlane;fontStyle=1;align=center;verticalAlign=top;childLayout=stackLayout;horizontal=1;startSize=40;horizontalStack=0;resizeParent=1;resizeParentMax=0;resizeLast=0;collapsible=1;marginBottom=0;whiteSpace=wrap;html=1;" vertex="1" parent="1">
          <mxGeometry x="330" y="723" width="160" height="300" as="geometry" />
        </mxCell>
        <mxCell id="bCKjbydv4XLaWoWh5i5W-11" value="Squad" style="text;strokeColor=none;fillColor=none;align=left;verticalAlign=top;spacingLeft=4;spacingRight=4;overflow=hidden;rotatable=0;points=[[0,0.5],[1,0.5]];portConstraint=eastwest;whiteSpace=wrap;html=1;" vertex="1" parent="bCKjbydv4XLaWoWh5i5W-10">
          <mxGeometry y="40" width="160" height="26" as="geometry" />
        </mxCell>
        <mxCell id="bCKjbydv4XLaWoWh5i5W-13" value="Leg Press" style="text;strokeColor=none;fillColor=none;align=left;verticalAlign=top;spacingLeft=4;spacingRight=4;overflow=hidden;rotatable=0;points=[[0,0.5],[1,0.5]];portConstraint=eastwest;whiteSpace=wrap;html=1;" vertex="1" parent="bCKjbydv4XLaWoWh5i5W-10">
          <mxGeometry y="66" width="160" height="26" as="geometry" />
        </mxCell>
        <mxCell id="bCKjbydv4XLaWoWh5i5W-15" value="Bench Press" style="text;strokeColor=none;fillColor=none;align=left;verticalAlign=top;spacingLeft=4;spacingRight=4;overflow=hidden;rotatable=0;points=[[0,0.5],[1,0.5]];portConstraint=eastwest;whiteSpace=wrap;html=1;" vertex="1" parent="bCKjbydv4XLaWoWh5i5W-10">
          <mxGeometry y="92" width="160" height="26" as="geometry" />
        </mxCell>
        <mxCell id="bCKjbydv4XLaWoWh5i5W-16" value="Pull-ups" style="text;strokeColor=none;fillColor=none;align=left;verticalAlign=top;spacingLeft=4;spacingRight=4;overflow=hidden;rotatable=0;points=[[0,0.5],[1,0.5]];portConstraint=eastwest;whiteSpace=wrap;html=1;" vertex="1" parent="bCKjbydv4XLaWoWh5i5W-10">
          <mxGeometry y="118" width="160" height="26" as="geometry" />
        </mxCell>
        <mxCell id="bCKjbydv4XLaWoWh5i5W-17" value="Bicep curls" style="text;strokeColor=none;fillColor=none;align=left;verticalAlign=top;spacingLeft=4;spacingRight=4;overflow=hidden;rotatable=0;points=[[0,0.5],[1,0.5]];portConstraint=eastwest;whiteSpace=wrap;html=1;" vertex="1" parent="bCKjbydv4XLaWoWh5i5W-10">
          <mxGeometry y="144" width="160" height="26" as="geometry" />
        </mxCell>
        <mxCell id="bCKjbydv4XLaWoWh5i5W-18" value="Hip thrusts" style="text;strokeColor=none;fillColor=none;align=left;verticalAlign=top;spacingLeft=4;spacingRight=4;overflow=hidden;rotatable=0;points=[[0,0.5],[1,0.5]];portConstraint=eastwest;whiteSpace=wrap;html=1;" vertex="1" parent="bCKjbydv4XLaWoWh5i5W-10">
          <mxGeometry y="170" width="160" height="26" as="geometry" />
        </mxCell>
        <mxCell id="l2FIG3eYDslee5MTGRL1-36" value="DeadLifts" style="text;strokeColor=none;fillColor=none;align=left;verticalAlign=top;spacingLeft=4;spacingRight=4;overflow=hidden;rotatable=0;points=[[0,0.5],[1,0.5]];portConstraint=eastwest;whiteSpace=wrap;html=1;" vertex="1" parent="bCKjbydv4XLaWoWh5i5W-10">
          <mxGeometry y="196" width="160" height="26" as="geometry" />
        </mxCell>
        <mxCell id="l2FIG3eYDslee5MTGRL1-37" value="Press Banca" style="text;strokeColor=none;fillColor=none;align=left;verticalAlign=top;spacingLeft=4;spacingRight=4;overflow=hidden;rotatable=0;points=[[0,0.5],[1,0.5]];portConstraint=eastwest;whiteSpace=wrap;html=1;" vertex="1" parent="bCKjbydv4XLaWoWh5i5W-10">
          <mxGeometry y="222" width="160" height="26" as="geometry" />
        </mxCell>
        <mxCell id="bCKjbydv4XLaWoWh5i5W-21" value="Planks" style="text;strokeColor=none;fillColor=none;align=left;verticalAlign=top;spacingLeft=4;spacingRight=4;overflow=hidden;rotatable=0;points=[[0,0.5],[1,0.5]];portConstraint=eastwest;whiteSpace=wrap;html=1;" vertex="1" parent="bCKjbydv4XLaWoWh5i5W-10">
          <mxGeometry y="248" width="160" height="26" as="geometry" />
        </mxCell>
        <mxCell id="bCKjbydv4XLaWoWh5i5W-22" value="Bulgarian Split Squats&amp;nbsp;" style="text;strokeColor=none;fillColor=none;align=left;verticalAlign=top;spacingLeft=4;spacingRight=4;overflow=hidden;rotatable=0;points=[[0,0.5],[1,0.5]];portConstraint=eastwest;whiteSpace=wrap;html=1;" vertex="1" parent="bCKjbydv4XLaWoWh5i5W-10">
          <mxGeometry y="274" width="160" height="26" as="geometry" />
        </mxCell>
        <mxCell id="Orh5wPGZt2oU2zoWEbcS-2" style="edgeStyle=orthogonalEdgeStyle;rounded=0;orthogonalLoop=1;jettySize=auto;html=1;entryX=0.512;entryY=1.026;entryDx=0;entryDy=0;entryPerimeter=0;" edge="1" parent="1" source="aeTVmqD48wDvW3vEy07L-2" target="9O9s9S7k72ydT3ChRUkx-1">
          <mxGeometry relative="1" as="geometry">
            <Array as="points">
              <mxPoint x="-655" y="193" />
              <mxPoint x="-273" y="193" />
            </Array>
          </mxGeometry>
        </mxCell>
        <mxCell id="Orh5wPGZt2oU2zoWEbcS-3" style="edgeStyle=orthogonalEdgeStyle;rounded=0;orthogonalLoop=1;jettySize=auto;html=1;entryX=0.494;entryY=0.965;entryDx=0;entryDy=0;entryPerimeter=0;exitX=0.75;exitY=0;exitDx=0;exitDy=0;" edge="1" parent="1" source="aeTVmqD48wDvW3vEy07L-2" target="bCKjbydv4XLaWoWh5i5W-4">
          <mxGeometry relative="1" as="geometry" />
        </mxCell>
        <mxCell id="xSD8aZRerAF0oIqXFnuP-103" value="ING DEL SOFTWARE" style="rounded=0;whiteSpace=wrap;html=1;" vertex="1" parent="1">
          <mxGeometry x="-710" y="63" width="120" height="26" as="geometry" />
        </mxCell>
        <mxCell id="5f0Wpx9bcbGFsgwsUaQS-2" style="edgeStyle=orthogonalEdgeStyle;rounded=0;orthogonalLoop=1;jettySize=auto;html=1;entryX=0.5;entryY=1;entryDx=0;entryDy=0;startArrow=none;startFill=0;endArrow=none;endFill=0;" edge="1" parent="1" source="bCKjbydv4XLaWoWh5i5W-9" target="aeTVmqD48wDvW3vEy07L-2">
          <mxGeometry relative="1" as="geometry" />
        </mxCell>
        <mxCell id="5f0Wpx9bcbGFsgwsUaQS-4" value="Realiza" style="edgeLabel;html=1;align=center;verticalAlign=middle;resizable=0;points=[];" connectable="0" vertex="1" parent="5f0Wpx9bcbGFsgwsUaQS-2">
          <mxGeometry x="0.0224" y="-2" relative="1" as="geometry">
            <mxPoint as="offset" />
          </mxGeometry>
        </mxCell>
        <mxCell id="5f0Wpx9bcbGFsgwsUaQS-3" value="0..*" style="text;html=1;align=center;verticalAlign=middle;resizable=0;points=[];autosize=1;strokeColor=none;fillColor=none;" vertex="1" parent="1">
          <mxGeometry x="-410" y="598" width="40" height="30" as="geometry" />
        </mxCell>
        <mxCell id="5f0Wpx9bcbGFsgwsUaQS-5" value="1" style="text;html=1;align=center;verticalAlign=middle;resizable=0;points=[];autosize=1;strokeColor=none;fillColor=none;" vertex="1" parent="1">
          <mxGeometry x="-655" y="536" width="30" height="30" as="geometry" />
        </mxCell>
      </root>
    </mxGraphModel>
  </diagram>
</mxfile>
